<?xml version="1.0" encoding="UTF-8"?>
<svg width="100mm" height="100mm" version="1.1" viewBox="0 0 100 100" xmlns="http://www.w3.org/2000/svg" xmlns:cc="http://creativecommons.org/ns#" xmlns:rdf="http://www.w3.org/1999/02/22-rdf-syntax-ns#"><defs><filter id="a" x="-.26841" y="-14.068" width="1.6039" height="32.652" color-interpolation-filters="sRGB"><feFlood flood-color="rgb(0,0,0)" result="flood"/><feComposite in="flood" in2="SourceGraphic" operator="in" result="composite1"/><feGaussianBlur in="composite1" result="blur" stdDeviation="10"/><feOffset dx="6" dy="6" result="offset"/><feComposite in="SourceGraphic" in2="offset" result="composite2"/></filter></defs><g stroke-linecap="round" stroke-linejoin="round"><path d="m43.121 11.118h156.41l-25.56 26.184h-130.85s0.56301 4.5004-3.1099 4.3783c-3.6729-0.12205-3.1151-4.3783-3.1151-4.3783l-6e-6 -7.1804-16.053 0.0689c0.08001 3.896-1.7222 4.5715-3.1898 4.5852-1.2569 0.01174-10.397-9.1853-10.396-10.302 4.4e-4 -1.1164 9.0936-9.5859 10.396-9.6182 1.6683-0.04136 3.435 0.3572 3.3153 4.3414l15.928-0.20546 4e-6 -7.8735s-0.218-3.1343 3.1151-3.2155c3.3331-0.0812 3.1099 3.2155 3.1099 3.2155z" fill="#1686fa" stroke="#000" stroke-width="3.1203"/><g fill="none"><rect x="45.082" y="18.027" width="124.49" height="12.646" stroke="#000" stroke-width="2.6662"/><path d="m43.38 11.376 156.41-8e-6 -25.56 26.184-130.85 2e-6s0.56301 4.5004-3.1099 4.3783c-3.6729-0.12207-3.1151-4.3783-3.1151-4.3783v-7.1804l-16.053 0.0689c0.08001 3.896-1.7222 4.5715-3.1898 4.5852-1.2569 0.01174-10.397-9.1853-10.396-10.302 4.2e-4 -1.1164 9.0936-9.5859 10.396-9.6182 1.6683-0.04136 3.435 0.3572 3.3153 4.3414l15.928-0.20545 1e-6 -7.8735s-0.21801-3.1343 3.1151-3.2155c3.3331-0.08122 3.1099 3.2155 3.1099 3.2155z" stroke="#0d58a7" stroke-width="3.1203"/><path d="m43.121 11.118h156.41l-25.56 26.184h-130.85s0.56301 4.5004-3.1099 4.3783c-3.6729-0.12205-3.1151-4.3783-3.1151-4.3783l-6e-6 -7.1804-16.053 0.0689c0.08001 3.896-1.7222 4.5715-3.1898 4.5852-1.2569 0.01174-10.397-9.1853-10.396-10.302 4.4e-4 -1.1164 9.0936-9.5859 10.396-9.6182 1.6683-0.04136 3.435 0.3572 3.3153 4.3414l15.928-0.20546 4e-6 -7.8735s-0.218-3.1343 3.1151-3.2155c3.3331-0.0812 3.1099 3.2155 3.1099 3.2155z" stroke="#0d0000" stroke-width="1.8228"/></g></g><g transform="matrix(.28525 0 0 .28525 -44.671 -33.127)" fill="#e3111d" filter="url(#a)" style="shape-inside:url(#rect19717);white-space:pre" aria-label="-2"><path d="m302.65 359.55h-89.414v-33.75h89.414z" filter="url(#a)" style="shape-inside:url(#rect19717);white-space:pre"/><path d="m474.21 420.26h-136.99v-28.828q15.703-11.367 31.406-24.141 15.82-12.773 25.312-22.031 14.18-13.711 20.156-23.906t5.9766-20.156q0-11.953-7.7344-18.398-7.6172-6.5625-22.031-6.5625-10.781 0-22.734 4.4531-11.836 4.4531-22.031 11.367h-3.75v-38.789q8.3203-3.6328 24.492-7.2656 16.289-3.6328 32.578-3.6328 32.812 0 50.039 13.828 17.227 13.711 17.227 38.906 0 16.523-8.3203 31.406-8.2031 14.883-25.195 30.703-10.664 9.8438-21.445 18.164-10.781 8.2031-15.352 11.484h78.398z" filter="url(#a)" style="shape-inside:url(#rect19717);white-space:pre"/></g><metadata><rdf:RDF><cc:Work rdf:about=""><cc:license rdf:resource="http://creativecommons.org/licenses/by-sa/4.0/"/></cc:Work><cc:License rdf:about="http://creativecommons.org/licenses/by-sa/4.0/"><cc:permits rdf:resource="http://creativecommons.org/ns#Reproduction"/><cc:permits rdf:resource="http://creativecommons.org/ns#Distribution"/><cc:requires rdf:resource="http://creativecommons.org/ns#Notice"/><cc:requires rdf:resource="http://creativecommons.org/ns#Attribution"/><cc:permits rdf:resource="http://creativecommons.org/ns#DerivativeWorks"/><cc:requires rdf:resource="http://creativecommons.org/ns#ShareAlike"/></cc:License></rdf:RDF></metadata></svg>
