<?xml version="1.0" encoding="UTF-8"?>
<svg width="100mm" height="100mm" version="1.1" viewBox="0 0 100 100" xmlns="http://www.w3.org/2000/svg" xmlns:cc="http://creativecommons.org/ns#" xmlns:rdf="http://www.w3.org/1999/02/22-rdf-syntax-ns#"><defs><filter id="a" x="-.26841" y="-14.05" width="1.6039" height="32.613" color-interpolation-filters="sRGB"><feFlood flood-color="rgb(0,0,0)" result="flood"/><feComposite in="flood" in2="SourceGraphic" operator="in" result="composite1"/><feGaussianBlur in="composite1" result="blur" stdDeviation="10"/><feOffset dx="6" dy="6" result="offset"/><feComposite in="SourceGraphic" in2="offset" result="composite2"/></filter></defs><g stroke-linecap="round" stroke-linejoin="round"><path d="m43.121 11.118h156.41l-25.56 26.184h-130.85s0.56301 4.5004-3.1099 4.3783c-3.6729-0.12205-3.1151-4.3783-3.1151-4.3783l-6e-6 -7.1804-16.053 0.0689c0.08001 3.896-1.7222 4.5715-3.1898 4.5852-1.2569 0.01174-10.397-9.1853-10.396-10.302 4.4e-4 -1.1164 9.0936-9.5859 10.396-9.6182 1.6683-0.04136 3.435 0.3572 3.3153 4.3414l15.928-0.20546 4e-6 -7.8735s-0.218-3.1343 3.1151-3.2155c3.3331-0.0812 3.1099 3.2155 3.1099 3.2155z" fill="#fb7b17" stroke="#000" stroke-width="3.1203"/><g fill="none"><rect x="45.082" y="18.027" width="124.49" height="12.646" stroke="#000" stroke-width="2.6662"/><path d="m43.38 11.376 156.41-8e-6 -25.56 26.184-130.85 2e-6s0.56301 4.5004-3.1099 4.3783c-3.6729-0.12207-3.1151-4.3783-3.1151-4.3783v-7.1804l-16.053 0.0689c0.08001 3.896-1.7222 4.5715-3.1898 4.5852-1.2569 0.01174-10.397-9.1853-10.396-10.302 4.2e-4 -1.1164 9.0936-9.5859 10.396-9.6182 1.6683-0.04136 3.435 0.3572 3.3153 4.3414l15.928-0.20545 1e-6 -7.8735s-0.21801-3.1343 3.1151-3.2155c3.3331-0.08122 3.1099 3.2155 3.1099 3.2155z" stroke="#ba6c3a" stroke-width="3.1203"/><path d="m43.121 11.118h156.41l-25.56 26.184h-130.85s0.56301 4.5004-3.1099 4.3783c-3.6729-0.12205-3.1151-4.3783-3.1151-4.3783l-6e-6 -7.1804-16.053 0.0689c0.08001 3.896-1.7222 4.5715-3.1898 4.5852-1.2569 0.01174-10.397-9.1853-10.396-10.302 4.4e-4 -1.1164 9.0936-9.5859 10.396-9.6182 1.6683-0.04136 3.435 0.3572 3.3153 4.3414l15.928-0.20546 4e-6 -7.8735s-0.218-3.1343 3.1151-3.2155c3.3331-0.0812 3.1099 3.2155 3.1099 3.2155z" stroke="#000" stroke-width="1.8228"/></g></g><g transform="matrix(.28525 0 0 .28525 -44.671 -33.127)" fill="#e3111d" filter="url(#a)" style="shape-inside:url(#rect19717);white-space:pre" aria-label="-5"><path d="m302.65 359.55h-89.414v-33.75h89.414z" filter="url(#a)" style="shape-inside:url(#rect19717);white-space:pre"/><path d="m470.46 361.19q0 13.594-5.1562 25.312-5.0391 11.602-14.766 19.922-10.781 8.9062-24.844 13.242-13.945 4.2188-31.875 4.2188-20.977-0.11718-35.508-3.3984-14.414-3.1641-23.555-7.1484v-38.555h4.9219q10.664 6.3281 22.969 10.547 12.305 4.2188 24.492 4.2188 7.3828 0 15.938-1.6406 8.6719-1.7578 13.711-6.2109 3.9844-3.6328 5.9766-7.3828 2.1094-3.75 2.1094-11.602 0-6.0938-2.8125-10.43-2.6953-4.4531-7.0312-7.1484-6.3281-3.8672-15.234-5.0391-8.9062-1.2891-16.172-1.2891-10.547 0-20.273 1.875-9.6094 1.7578-16.875 3.5156h-5.1562v-98.438h124.1v33.398h-81.797v28.477q3.6328-0.23437 9.1406-0.35156 5.625-0.23437 9.8438-0.23437 14.414 0 25.664 2.8125 11.367 2.6953 19.57 7.6172 10.664 6.4453 16.641 17.109 5.9766 10.547 5.9766 26.602z" filter="url(#a)" style="shape-inside:url(#rect19717);white-space:pre"/></g><metadata><rdf:RDF><cc:Work rdf:about=""><cc:license rdf:resource="http://creativecommons.org/licenses/by-sa/4.0/"/></cc:Work><cc:License rdf:about="http://creativecommons.org/licenses/by-sa/4.0/"><cc:permits rdf:resource="http://creativecommons.org/ns#Reproduction"/><cc:permits rdf:resource="http://creativecommons.org/ns#Distribution"/><cc:requires rdf:resource="http://creativecommons.org/ns#Notice"/><cc:requires rdf:resource="http://creativecommons.org/ns#Attribution"/><cc:permits rdf:resource="http://creativecommons.org/ns#DerivativeWorks"/><cc:requires rdf:resource="http://creativecommons.org/ns#ShareAlike"/></cc:License></rdf:RDF></metadata></svg>
