<?xml version="1.0" encoding="UTF-8"?>
<svg width="100mm" height="100mm" version="1.1" viewBox="0 0 100 100" xmlns="http://www.w3.org/2000/svg" xmlns:cc="http://creativecommons.org/ns#" xmlns:rdf="http://www.w3.org/1999/02/22-rdf-syntax-ns#"><defs><filter id="a" x="-.096015" y="-.13717" width="1.216" height="1.3086" color-interpolation-filters="sRGB"><feFlood flood-color="rgb(0,0,0)" result="flood"/><feComposite in="flood" in2="SourceGraphic" operator="in" result="composite1"/><feGaussianBlur in="composite1" result="blur" stdDeviation="10"/><feOffset dx="6" dy="6" result="offset"/><feComposite in="SourceGraphic" in2="offset" result="composite2"/></filter></defs><g stroke-linecap="round" stroke-linejoin="round"><path d="m11.241 74.499 40.131-69.508 5.0782 18.077-33.572 58.149s2.1445 0.9045 1.1478 2.5055c-0.99663 1.601-2.745 0.26098-2.745 0.26098l-3.191-1.8423-4.0883 7.1518c1.7519 0.96409 1.5898 1.9383 1.2192 2.594-0.31731 0.56157-6.7496 2.2637-7.2457 1.977-0.49604-0.28665-1.9268-6.5008-1.6069-7.0881 0.40966-0.752 1.0401-1.4349 2.78-0.35944l3.9954-7.1311-3.499-2.0202s-1.4489-0.70732-0.62975-2.2094c0.81911-1.5021 2.2269-0.55702 2.2269-0.55702z" fill="#1585fa" stroke="#000" stroke-width="1.6012"/><g fill="none"><rect transform="rotate(-60)" x="-57.891" y="50.531" width="63.884" height="6.4894" stroke="#000" stroke-width="1.3682"/><path d="m11.423 74.451 40.131-69.508 5.0782 18.077-33.572 58.149s2.1445 0.9045 1.1478 2.5055c-0.99664 1.601-2.745 0.26098-2.745 0.26098l-3.191-1.8423-4.0883 7.1518c1.7519 0.96409 1.5898 1.9383 1.2192 2.594-0.31731 0.56157-6.7496 2.2637-7.2457 1.977-0.49604-0.28664-1.9268-6.5008-1.6069-7.0881 0.40966-0.752 1.0401-1.4349 2.78-0.35944l3.9954-7.1311-3.499-2.0202s-1.4489-0.70732-0.62975-2.2094c0.81911-1.5021 2.2269-0.55702 2.2269-0.55702z" stroke="#11559c" stroke-width="1.6012"/><path d="m11.241 74.499 40.131-69.508 5.0782 18.077-33.572 58.149s2.1445 0.9045 1.1478 2.5055c-0.99663 1.601-2.745 0.26098-2.745 0.26098l-3.191-1.8423-4.0883 7.1518c1.7519 0.96409 1.5898 1.9383 1.2192 2.594-0.31731 0.56157-6.7496 2.2637-7.2457 1.977-0.49604-0.28665-1.9268-6.5008-1.6069-7.0881 0.40966-0.752 1.0401-1.4349 2.78-0.35944l3.9954-7.1311-3.499-2.0202s-1.4489-0.70732-0.62975-2.2094c0.81911-1.5021 2.2269-0.55702 2.2269-0.55702z" stroke="#000" stroke-width=".93539"/></g></g><text transform="matrix(.26458 0 0 .26458 -32.319 -27.513)" fill="#e3111d" filter="url(#a)" font-family="sans-serif" font-size="240px" font-weight="bold" style="font-variant-caps:normal;font-variant-east-asian:normal;font-variant-ligatures:normal;font-variant-numeric:normal;line-height:1.25;shape-inside:url(#rect19717);white-space:pre" xml:space="preserve"/><metadata><rdf:RDF><cc:Work rdf:about=""><cc:license rdf:resource="http://creativecommons.org/licenses/by-sa/4.0/"/></cc:Work><cc:License rdf:about="http://creativecommons.org/licenses/by-sa/4.0/"><cc:permits rdf:resource="http://creativecommons.org/ns#Reproduction"/><cc:permits rdf:resource="http://creativecommons.org/ns#Distribution"/><cc:requires rdf:resource="http://creativecommons.org/ns#Notice"/><cc:requires rdf:resource="http://creativecommons.org/ns#Attribution"/><cc:permits rdf:resource="http://creativecommons.org/ns#DerivativeWorks"/><cc:requires rdf:resource="http://creativecommons.org/ns#ShareAlike"/></cc:License></rdf:RDF></metadata></svg>
