<?xml version="1.0" encoding="UTF-8"?>
<svg width="100mm" height="100mm" version="1.1" viewBox="0 0 100 100" xmlns="http://www.w3.org/2000/svg" xmlns:cc="http://creativecommons.org/ns#" xmlns:rdf="http://www.w3.org/1999/02/22-rdf-syntax-ns#"><defs><filter id="a" x="-.26841" y="-13.809" width="1.6039" height="32.07" color-interpolation-filters="sRGB"><feFlood flood-color="rgb(0,0,0)" result="flood"/><feComposite in="flood" in2="SourceGraphic" operator="in" result="composite1"/><feGaussianBlur in="composite1" result="blur" stdDeviation="10"/><feOffset dx="6" dy="6" result="offset"/><feComposite in="SourceGraphic" in2="offset" result="composite2"/></filter></defs><g stroke-linecap="round" stroke-linejoin="round"><path d="m43.121 11.118h156.41l-25.56 26.184h-130.85s0.56301 4.5004-3.1099 4.3783c-3.6729-0.12205-3.1151-4.3783-3.1151-4.3783l-6e-6 -7.1804-16.053 0.0689c0.08001 3.896-1.7222 4.5715-3.1898 4.5852-1.2569 0.01174-10.397-9.1853-10.396-10.302 4.4e-4 -1.1164 9.0936-9.5859 10.396-9.6182 1.6683-0.04136 3.435 0.3572 3.3153 4.3414l15.928-0.20546 4e-6 -7.8735s-0.218-3.1343 3.1151-3.2155c3.3331-0.0812 3.1099 3.2155 3.1099 3.2155z" fill="#e01701" stroke="#000" stroke-width="3.1203"/><g fill="none"><rect x="45.082" y="18.027" width="124.49" height="12.646" stroke="#000" stroke-width="2.6662"/><path d="m43.38 11.376 156.41-8e-6 -25.56 26.184-130.85 2e-6s0.56301 4.5004-3.1099 4.3783c-3.6729-0.12207-3.1151-4.3783-3.1151-4.3783v-7.1804l-16.053 0.0689c0.08001 3.896-1.7222 4.5715-3.1898 4.5852-1.2569 0.01174-10.397-9.1853-10.396-10.302 4.2e-4 -1.1164 9.0936-9.5859 10.396-9.6182 1.6683-0.04136 3.435 0.3572 3.3153 4.3414l15.928-0.20545 1e-6 -7.8735s-0.21801-3.1343 3.1151-3.2155c3.3331-0.08122 3.1099 3.2155 3.1099 3.2155z" stroke="#8c0d06" stroke-width="3.1203"/><path d="m43.121 11.118h156.41l-25.56 26.184h-130.85s0.56301 4.5004-3.1099 4.3783c-3.6729-0.12205-3.1151-4.3783-3.1151-4.3783l-6e-6 -7.1804-16.053 0.0689c0.08001 3.896-1.7222 4.5715-3.1898 4.5852-1.2569 0.01174-10.397-9.1853-10.396-10.302 4.4e-4 -1.1164 9.0936-9.5859 10.396-9.6182 1.6683-0.04136 3.435 0.3572 3.3153 4.3414l15.928-0.20546 4e-6 -7.8735s-0.218-3.1343 3.1151-3.2155c3.3331-0.0812 3.1099 3.2155 3.1099 3.2155z" stroke="#000" stroke-width="1.8228"/></g></g><g transform="matrix(.28525 0 0 .28525 -44.671 -33.127)" fill="#e3111d" filter="url(#a)" style="shape-inside:url(#rect19717);white-space:pre" aria-label="-6"><path d="m302.65 359.55h-89.414v-33.75h89.414z" filter="url(#a)" style="shape-inside:url(#rect19717);white-space:pre"/><path d="m473.98 360.84q0 13.477-4.9219 25.312-4.9219 11.836-13.828 19.922-9.4922 8.6719-22.031 13.242-12.422 4.5703-29.18 4.5703-15.703 0-28.711-4.2188-12.891-4.3359-22.148-13.125-10.664-10.078-16.289-26.016t-5.625-38.086q0-22.969 5.2734-40.781 5.2734-17.812 17.227-31.523 11.484-13.125 29.766-20.391 18.398-7.2656 43.711-7.2656 8.5547 0 18.75 1.1719 10.195 1.1719 13.242 1.7578v34.336h-4.4531q-3.1641-1.5234-10.781-3.3984-7.5-1.9922-17.109-1.9922-22.5 0-35.039 11.016-12.539 11.016-15.117 30.703 9.0234-5.3906 18.984-8.6719 10.078-3.3984 21.68-3.3984 10.195 0 18.867 2.3438 8.7891 2.3438 16.289 7.5 9.7266 6.7969 15.586 18.281 5.8594 11.484 5.8594 28.711zm-53.32 26.367q3.6328-3.9844 5.7422-9.375 2.2266-5.5078 2.2266-14.883 0-8.5547-2.4609-13.945-2.4609-5.5078-6.7969-8.7891-4.2188-3.2812-9.9609-4.4531-5.7422-1.2891-11.836-1.2891-5.1562 0-10.781 1.1719-5.625 1.1719-10.312 2.9297 0 1.1719-0.11719 3.8672-0.11718 2.6953-0.11718 6.7969 0 14.414 2.8125 23.789 2.9297 9.2578 7.7344 14.18 3.2812 3.6328 7.7344 5.3906 4.4531 1.6406 9.6094 1.6406 3.8672 0 8.5547-1.7578 4.6875-1.7578 7.9688-5.2734z" filter="url(#a)" style="shape-inside:url(#rect19717);white-space:pre"/></g><metadata><rdf:RDF><cc:Work rdf:about=""><cc:license rdf:resource="http://creativecommons.org/licenses/by-sa/4.0/"/></cc:Work><cc:License rdf:about="http://creativecommons.org/licenses/by-sa/4.0/"><cc:permits rdf:resource="http://creativecommons.org/ns#Reproduction"/><cc:permits rdf:resource="http://creativecommons.org/ns#Distribution"/><cc:requires rdf:resource="http://creativecommons.org/ns#Notice"/><cc:requires rdf:resource="http://creativecommons.org/ns#Attribution"/><cc:permits rdf:resource="http://creativecommons.org/ns#DerivativeWorks"/><cc:requires rdf:resource="http://creativecommons.org/ns#ShareAlike"/></cc:License></rdf:RDF></metadata></svg>
