<?xml version="1.0" encoding="UTF-8"?>
<svg width="100mm" height="100mm" version="1.1" viewBox="0 0 100 100" xmlns="http://www.w3.org/2000/svg" xmlns:cc="http://creativecommons.org/ns#" xmlns:rdf="http://www.w3.org/1999/02/22-rdf-syntax-ns#"><defs><filter id="a" x="-.26841" y="-13.783" width="1.6039" height="32.013" color-interpolation-filters="sRGB"><feFlood flood-color="rgb(0,0,0)" result="flood"/><feComposite in="flood" in2="SourceGraphic" operator="in" result="composite1"/><feGaussianBlur in="composite1" result="blur" stdDeviation="10"/><feOffset dx="6" dy="6" result="offset"/><feComposite in="SourceGraphic" in2="offset" result="composite2"/></filter></defs><g stroke-linecap="round" stroke-linejoin="round"><path d="m43.121 11.118h156.41l-25.56 26.184h-130.85s0.56301 4.5004-3.1099 4.3783c-3.6729-0.12205-3.1151-4.3783-3.1151-4.3783l-6e-6 -7.1804-16.053 0.0689c0.08001 3.896-1.7222 4.5715-3.1898 4.5852-1.2569 0.01174-10.397-9.1853-10.396-10.302 4.4e-4 -1.1164 9.0936-9.5859 10.396-9.6182 1.6683-0.04136 3.435 0.3572 3.3153 4.3414l15.928-0.20546 4e-6 -7.8735s-0.218-3.1343 3.1151-3.2155c3.3331-0.0812 3.1099 3.2155 3.1099 3.2155z" fill="#1cbb62" stroke="#000" stroke-width="3.1203"/><g fill="none"><rect x="45.082" y="18.027" width="124.49" height="12.646" stroke="#000" stroke-width="2.6662"/><path d="m43.38 11.376 156.41-8e-6 -25.56 26.184-130.85 2e-6s0.56301 4.5004-3.1099 4.3783c-3.6729-0.12207-3.1151-4.3783-3.1151-4.3783v-7.1804l-16.053 0.0689c0.08001 3.896-1.7222 4.5715-3.1898 4.5852-1.2569 0.01174-10.397-9.1853-10.396-10.302 4.2e-4 -1.1164 9.0936-9.5859 10.396-9.6182 1.6683-0.04136 3.435 0.3572 3.3153 4.3414l15.928-0.20545 1e-6 -7.8735s-0.21801-3.1343 3.1151-3.2155c3.3331-0.08122 3.1099 3.2155 3.1099 3.2155z" stroke="#32844f" stroke-width="3.1203"/><path d="m43.121 11.118h156.41l-25.56 26.184h-130.85s0.56301 4.5004-3.1099 4.3783c-3.6729-0.12205-3.1151-4.3783-3.1151-4.3783l-6e-6 -7.1804-16.053 0.0689c0.08001 3.896-1.7222 4.5715-3.1898 4.5852-1.2569 0.01174-10.397-9.1853-10.396-10.302 4.4e-4 -1.1164 9.0936-9.5859 10.396-9.6182 1.6683-0.04136 3.435 0.3572 3.3153 4.3414l15.928-0.20546 4e-6 -7.8735s-0.218-3.1343 3.1151-3.2155c3.3331-0.0812 3.1099 3.2155 3.1099 3.2155z" stroke="#000" stroke-width="1.8228"/></g></g><g transform="matrix(.28525 0 0 .28525 -44.671 -33.127)" fill="#e3111d" filter="url(#a)" style="shape-inside:url(#rect19717);white-space:pre" aria-label="-3"><path d="m302.65 359.55h-89.414v-33.75h89.414z" filter="url(#a)" style="shape-inside:url(#rect19717);white-space:pre"/><path d="m457.1 338.46q5.7422 4.9219 9.1406 11.484 3.3984 6.5625 3.3984 17.461 0 12.305-4.9219 22.969-4.8047 10.664-14.883 18.281-9.8438 7.3828-23.203 11.367-13.242 3.8672-32.227 3.8672-21.68 0-37.266-3.3984-15.469-3.3984-25.195-7.6172v-38.32h4.5703q10.078 6.0938 24.023 10.547 14.062 4.4531 25.664 4.4531 6.7969 0 14.766-1.0547 7.9688-1.1719 13.477-4.9219 4.3359-2.9297 6.9141-7.0312 2.5781-4.2188 2.5781-12.07 0-7.6172-3.5156-11.719-3.5156-4.2188-9.2578-5.9766-5.7422-1.875-13.828-1.9922-8.0859-0.23437-15-0.23437h-9.6094v-31.172h9.9609q9.1406 0 16.172-0.58594 7.0312-0.58593 11.953-2.6953 5.1562-2.2266 7.7344-5.8594 2.5781-3.75 2.5781-10.898 0-5.2734-2.6953-8.4375-2.6953-3.2812-6.7969-5.1562-4.5703-2.1094-10.781-2.8125-6.2109-0.70313-10.664-0.70313-11.016 0-23.906 3.8672-12.891 3.75-24.961 10.898h-4.3359v-37.852q9.6094-3.8672 26.133-7.3828 16.523-3.6328 33.516-3.6328 16.523 0 28.945 2.9297 12.422 2.8125 20.508 7.6172 9.6094 5.7422 14.297 13.945 4.6875 8.2031 4.6875 19.219 0 14.531-9.0234 26.016-9.0234 11.367-23.789 14.531v1.6406q5.9766 0.82031 12.656 3.2812t12.188 7.1484z" filter="url(#a)" style="shape-inside:url(#rect19717);white-space:pre"/></g><metadata><rdf:RDF><cc:Work rdf:about=""><cc:license rdf:resource="http://creativecommons.org/licenses/by-sa/4.0/"/></cc:Work><cc:License rdf:about="http://creativecommons.org/licenses/by-sa/4.0/"><cc:permits rdf:resource="http://creativecommons.org/ns#Reproduction"/><cc:permits rdf:resource="http://creativecommons.org/ns#Distribution"/><cc:requires rdf:resource="http://creativecommons.org/ns#Notice"/><cc:requires rdf:resource="http://creativecommons.org/ns#Attribution"/><cc:permits rdf:resource="http://creativecommons.org/ns#DerivativeWorks"/><cc:requires rdf:resource="http://creativecommons.org/ns#ShareAlike"/></cc:License></rdf:RDF></metadata></svg>
