<?xml version="1.0" encoding="UTF-8"?>
<svg width="100mm" height="100mm" version="1.1" viewBox="0 0 100 100" xmlns="http://www.w3.org/2000/svg"><g><path d="m57.968 14.962s0.68277 6.176 0.76592 10.794c0.1304 7.2416-0.39521 10.345-1.5865 11.239-1.1153 0.83756-2.4143-0.61677-4.6875-2.1063-3.723-2.4394-4.4439-2.8396-6.8193-0.46424-1.4504 1.4504-3.1856 3.0297-3.856 3.0297-1.6048-0.60311-1.7994-3.5926-1.7513-6.6306 0.14784-9.332 0.44521-15.177 0.44521-15.177 2.7295-2.9241 3.5416-6.2647 2.1407-7.138-0.41964-0.26159-1.4286-1.0022-2.349-0.95688-1.5908 0.078395-3.7001 1.2847-5.267 2.18-4.9553 2.8313-10.957 8.3133-13.042 10.997-3.3625 5.6613-2.2936 22.053-1.587 23.624 0.96518 2.1457 1.831 3.753 3.2319 5.301 2.5911 2.8631 2.9274 4.347 1.4944 6.5895-1.4457 2.2624-3.7987 2.3774-10.852 2.2886l-9.1989-0.11565 1.4072 4.3932c4.4098 10.317 13.254 27.277 23.138 29.053 4.7664 0.78376 8.02 0.32725 3.5826-6.1801-1.2157-1.7828-2.9779-2.7562-3.0263-6.0502-0.06467-4.4037 2.8661-5.6392 5.5969-4.4943 10.838 4.5437 16.924 6.2504 28.102 0.20524 2.7123-1.4669 5.3931 0.80667 4.5955 4.4224-0.7918 3.5898-2.6731 5.9808-3.0814 8.1933-0.53543 2.9018 0.48674 4.0187 4.2635 3.2967 5.3585-1.0243 17.5-11.226 20.612-17.319 1.2736-2.4935 2.8543-7.0361 3.513-10.095l1.1976-5.5606c-3.4154 0.0369-6.0092 0.06817-9.7975 0.04129-3.5181-0.02496-7.2068-0.11404-10.163-0.84603-1.6578-0.54506-2.4636-1.5656-2.1704-3.0003 1.3762-3.1422 3.0335-4.9587 4.5774-8.7285 0.81457-1.989 2.8967-19.544-0.10406-24.186-1.1932-2.4763-2.0264-3.4728-4.5928-5.9274-2.7067-2.5888-4.9743-4.1335-8.6558-6.3186-1.2676-0.67705-3.5578-1.8774-5.5977-1.85-1.6878 0.022645-3.6256 0.69946-3.6349 2.5344 0.0594 1.3324 1.6927 3.4146 3.1561 4.9614zm-29.413 10.074c1.1688-1.5349 2.3535-1.7584 2.8733 0.04693 0.3826 1.3288 0.60617 1.6822 0.42632 8.5048-0.09738 3.6938 0.49537 10.288 1.4656 12.111 1.3376 2.5123 3.7665 5.3784 6.0342 7.7454 1.6812 1.7548 3.8391 3.4978 5.135 3.5536 2.0765 0.08945 2.403 0.07554 6.1286-3.6501 5.0943-5.0943 4.2646-6.4776 0.52859-9.6311-1.2778-1.0786-4.0417 1.759-2.9429 2.92 1.088 1.1496 1.245 2.3424 0.77794 2.9068-0.641 0.77477-1.647 1.1707-2.7106 0.08292-0.89133-0.91161-2.8485-2.1023-3.276-3.2704-0.4118-1.125 0.52106-2.4373 1.8464-3.7709 1.9021-1.9139 3.4959-3.0943 5.1038-3.0021 1.3578 0.07786 3.3704 1.4757 5.4497 3.555 1.4568 1.4568 2.3541 2.4379 2.4102 3.6948 0.02614 0.58538-0.58671 2.3958-0.98066 3.1781-0.46921 0.9318-2.3796 2.6834-3 3.5853-1.4392 2.0922 0.31556 5.0688 6.385 0.0018 3.1099-2.5962 4.5251-5.0089 5.283-7.3867 0.65577-2.0574 1.5352-3.711 1.7029-7.9409 0.11428-2.8828 0.28752-2.9072 0.01202-8.9165-0.04789-1.0447-0.20459-3.0194 0.17095-3.8913 0.7494-1.7399 2.5776 0.79924 3.2574 1.9752 0.73306 1.2681 1.2257 3.7336 1.4624 7.3436 0.61781 9.4217-5.2396 20.162-13.256 24.307-8.354 4.32-14.27 3.3105-22.281-3.8013-6.0721-5.3907-9.9313-12.221-9.9224-19.134 0.01071-8.2533 0.33272-9.0377 1.9158-11.117zm-5.4801 42.108c1.5223-6.4e-5 2.7564 1.234 2.7564 2.7564 6.5e-5 1.5223-1.234 2.7564-2.7564 2.7564-1.5221-2.51e-4 -2.7559-1.2343-2.7558-2.7564-6.5e-5 -1.5221 1.2337-2.7561 2.7558-2.7564zm52.381 0.1054c1.5221-6.4e-5 2.7561 1.2337 2.7564 2.7558 6.4e-5 1.5223-1.234 2.7564-2.7564 2.7564-1.5223 6.4e-5 -2.7564-1.234-2.7564-2.7564 2.5e-4 -1.5221 1.2343-2.7559 2.7564-2.7558z" fill="#fb4a0c" stroke-width="1.711"/></g></svg>
